<svg id="Capa_1" data-name="Capa 1" xmlns="http://www.w3.org/2000/svg" viewBox="0 0 991.33 992.29"><defs><style>.cls-1{fill:#d57fff;}.cls-2{fill:#3f9bff;}</style></defs><path class="cls-1" d="M611.86,129.07a257.14,257.14,0,0,0-160.55,55.72A57.4,57.4,0,0,1,462.93,182c28-3.65,47.68,16.07,44,44s-29.28,53.6-57.25,57.25-47.69-16.07-44-44a58.14,58.14,0,0,1,2.81-11.61A259.21,259.21,0,0,0,731.93,617.89q-3.12.14-6.31.43c-45.68,4.29-84.8-10.16-114.31-45.52C566.45,519,522.74,464.3,478.66,409.89c-8.33-10.28-8.62-21.31,1.33-30.34s21-7.54,30.35,1.69C533.45,404,556.29,427.09,579.25,450c21.5,21.49,42.9,43.08,64.52,64.45,12.5,12.35,25.39,13.5,35.26,3.67,9.54-9.49,8.19-23.11-4-35.32Q610.12,417.7,545,352.75c-14.48-14.53-13.3-31.93,2.5-39.52,12-5.75,20.7.09,28.79,8.2q40.4,40.49,80.84,80.91c16,16,32,32.15,48.11,48.07,13.5,13.34,26.3,15,36.46,5.16s8.46-23.37-4.58-36.45Q674.38,356.18,611.48,293.4a105.79,105.79,0,0,1-7.56-7.72c-7.74-9.52-9.44-19.67-.65-29.24,9.27-10.1,20-9.7,30.28-1.46,30.51,24.51,60.83,49.25,91.23,73.9,21.2,17.18,42.29,34.51,63.65,51.49,38.71,30.78,58.05,70.36,53.52,120-.25,2.73-.41,5.41-.49,8.06a259.2,259.2,0,0,0-229.6-379.4Z" transform="translate(-4.33 -3.85)"/><path class="cls-2" d="M390.27,75C205.39,207.75,178.56,458.4,309.72,625.38a.06.06,0,0,1,0,.08q-58.86,53.29-117.6,106.73c-54.63,49.4-109.5,98.54-164.07,148-29.68,26.89-31.65,68.83-5,96.22a65,65,0,0,0,95.09-1.9Q246.75,832.81,374.82,690.62a.06.06,0,0,1,.08,0C506.29,794,689.61,799.45,826.47,707A24,24,0,0,0,830.78,671q-7.75-8.58-15.49-17.19a118.58,118.58,0,0,0-17.79-16.27,24,24,0,0,0-27.15-.74c-108.91,69.69-253.65,60.6-353.19-27.31-131-115.75-132.7-320.79-3.49-438.59C529.21,65.6,708.34,68.78,820.05,180.48,919.57,280,932.93,433,860.17,547a24,24,0,0,0,.52,26.86,137.57,137.57,0,0,0,20.56,22.66L894,607.93a24,24,0,0,0,36-4.44c112.58-166.32,80.45-401.36-96.46-528.41C701.3-19.87,522.5-19.89,390.27,75Z" transform="translate(-4.33 -3.85)"/></svg>