<svg id="Capa_1" data-name="Capa 1" xmlns="http://www.w3.org/2000/svg" viewBox="0 0 2208.62 342.32"><defs><style>.cls-1{fill:#3f9bff;}.cls-2{fill:#d57fff;}</style></defs><path class="cls-1" d="M38,337.45a15.42,15.42,0,0,1-11.07-4.53,15,15,0,0,1-4.7-11.24V91.11A15.12,15.12,0,0,1,26.72,79.7,15.59,15.59,0,0,1,38,75.34H192q7.05,0,11.24,4.19a14.76,14.76,0,0,1,4.2,10.91,13.93,13.93,0,0,1-4.2,10.24q-4.2,4.2-11.24,4.19H53.74v85.92h99.67q7.05,0,11.41,4.19a15,15,0,0,1,0,21.15q-4.37,4.2-11.41,4.19H53.74V321.68A15.48,15.48,0,0,1,38,337.45Z" transform="translate(-22.19 -75.34)"/><path class="cls-1" d="M333,338.79q-26.85,0-47.82-11.91A86,86,0,0,1,252.25,294q-11.92-21-11.91-48.16,0-27.51,11.91-48.5a86,86,0,0,1,32.89-32.89q21-11.91,47.82-11.91t47.83,11.91a86.17,86.17,0,0,1,32.89,32.89q11.91,21,12.25,48.5,0,27.18-12.09,48.16A87.54,87.54,0,0,1,381,326.88Q360.14,338.79,333,338.79Zm0-27.52q18.46,0,32.56-8.39a59.66,59.66,0,0,0,22.15-23.15q8.06-14.78,8.05-33.9t-8.05-34.07a59.38,59.38,0,0,0-22.15-23.32q-14.1-8.38-32.56-8.39-18.12,0-32.38,8.39a58.89,58.89,0,0,0-22.32,23.32q-8.06,14.94-8.06,34.07t8.06,33.9a59.17,59.17,0,0,0,22.32,23.15Q314.83,311.28,333,311.27Z" transform="translate(-22.19 -75.34)"/><path class="cls-1" d="M559.83,338.79q-26.85,0-47.82-11.91A86,86,0,0,1,479.12,294q-11.92-21-11.92-48.16,0-27.51,11.92-48.5A86,86,0,0,1,512,164.44q21-11.91,47.82-11.91t47.83,11.91a86.17,86.17,0,0,1,32.89,32.89q11.91,21,12.25,48.5,0,27.18-12.09,48.16a87.57,87.57,0,0,1-32.89,32.89Q587,338.79,559.83,338.79Zm0-27.52q18.45,0,32.56-8.39a59.66,59.66,0,0,0,22.15-23.15q8.06-14.78,8.05-33.9t-8.05-34.07a59.38,59.38,0,0,0-22.15-23.32q-14.1-8.38-32.56-8.39-18.12,0-32.38,8.39a58.89,58.89,0,0,0-22.32,23.32q-8.06,14.94-8.06,34.07t8.06,33.9a59.17,59.17,0,0,0,22.32,23.15Q541.7,311.28,559.83,311.27Z" transform="translate(-22.19 -75.34)"/><path class="cls-1" d="M786.7,338.79q-26.18,0-47.15-12.25a90.52,90.52,0,0,1-33.23-33.39Q694.07,272,694.07,245.49T705.49,198a87.36,87.36,0,0,1,31.21-33.22q19.8-12.25,45-12.25a83.38,83.38,0,0,1,66.78,32.22v-94q0-7.05,4.37-11.25a15.32,15.32,0,0,1,11.07-4.19q7.05,0,11.41,4.19t4.37,11.25V246.16q-.34,26.19-12.59,47.33a89.37,89.37,0,0,1-33.22,33.22Q812.88,338.8,786.7,338.79Zm0-27.52q18.12,0,32.22-8.56a61.75,61.75,0,0,0,22.32-23.49q8.22-14.93,8.22-33.73t-8.22-33.56a62.14,62.14,0,0,0-22.32-23.32q-14.1-8.56-32.22-8.56a61.67,61.67,0,0,0-54.53,31.88q-8.24,14.77-8.23,33.56t8.23,33.73a61.38,61.38,0,0,0,54.53,32Z" transform="translate(-22.19 -75.34)"/><path class="cls-1" d="M982,337.45a42.94,42.94,0,0,1-25.17-7.72,51.22,51.22,0,0,1-17.28-21.31q-6.23-13.59-6.21-31.38V90.44a14.37,14.37,0,0,1,15.1-15.1q7,0,11.24,4.19a14.76,14.76,0,0,1,4.2,10.91V277q0,13.09,5.2,21.48T982,306.91h8.39a12.74,12.74,0,0,1,10.07,4.19q3.69,4.2,3.69,11.25a13,13,0,0,1-5.54,10.9q-5.53,4.22-14.26,4.2Z" transform="translate(-22.19 -75.34)"/><path class="cls-1" d="M1109.55,330.74c-4,1.79-7.72,2-11.07.67a15.79,15.79,0,0,1-8.06-7.72L1014.24,174a12.58,12.58,0,0,1-.84-11.08,13.77,13.77,0,0,1,8.22-7.72,14,14,0,0,1,10.91-.83c3.47,1.23,6.09,3.85,7.89,7.88l73.5,149.35q3.35,6,2.35,11.24T1109.55,330.74Zm-38.93,86.92a18.8,18.8,0,0,1-7-1.68q-13.42-6-7.38-19.13L1160.9,162.6q6-12.75,19.13-7.39,13.76,5.72,7.72,19.13l-105,233.92Q1078.68,417.65,1070.62,417.66Z" transform="translate(-22.19 -75.34)"/><path class="cls-2" d="M1316.62,337.45a15.42,15.42,0,0,1-11.07-4.53,15,15,0,0,1-4.7-11.24V91.11a15.12,15.12,0,0,1,4.53-11.41,15.59,15.59,0,0,1,11.24-4.36h154q7,0,11.25,4.19a14.8,14.8,0,0,1,4.19,10.91,14,14,0,0,1-4.19,10.24q-4.2,4.2-11.25,4.19H1332.39v85.92h99.68q7,0,11.41,4.19a15,15,0,0,1,0,21.15q-4.37,4.2-11.41,4.19h-99.68V321.68a15.48,15.48,0,0,1-15.77,15.77Z" transform="translate(-22.19 -75.34)"/><path class="cls-2" d="M1547.85,122a19.69,19.69,0,0,1-14.43-6,20.12,20.12,0,0,1-6-14.77,19.3,19.3,0,0,1,6.21-14.6,20.58,20.58,0,0,1,14.6-5.87,20.17,20.17,0,0,1,14.26,5.87,19.3,19.3,0,0,1,6.21,14.6A20.62,20.62,0,0,1,1547.85,122Zm.34,215.46a15.41,15.41,0,0,1-11.41-4.36,15,15,0,0,1-4.36-11.08V169.31q0-7,4.36-11.24t11.41-4.2a15.34,15.34,0,0,1,11.08,4.2q4.35,4.2,4.36,11.24V322a14.92,14.92,0,0,1-15.44,15.44Z" transform="translate(-22.19 -75.34)"/><path class="cls-2" d="M1643.5,337.79a14.95,14.95,0,0,1-15.44-15.44v-153q0-7,4.37-11.24a15.29,15.29,0,0,1,11.07-4.2q7.05,0,11.25,4.2t4.19,11.24v153a15.32,15.32,0,0,1-4.19,11.07Q1650.55,337.79,1643.5,337.79Zm140.62,0a15.22,15.22,0,0,1-11.24-4.54,14.85,14.85,0,0,1-4.53-10.9V237.77q0-19.78-7.38-32.38a47.2,47.2,0,0,0-19.81-18.8q-12.42-6.19-28.52-6.2a59.94,59.94,0,0,0-27.19,6,51.42,51.42,0,0,0-19.29,16.11,38.66,38.66,0,0,0-7.22,23.15H1638.8q.33-21.13,10.74-37.75a73.91,73.91,0,0,1,28.19-26.18q17.79-9.57,39.94-9.57,23.49,0,41.95,9.9a72.26,72.26,0,0,1,29.2,29q10.74,19.14,10.74,46.65v84.58a15.48,15.48,0,0,1-15.44,15.44Z" transform="translate(-22.19 -75.34)"/><path class="cls-2" d="M1939.51,338.79q-26.17,0-47.16-12.25a90.49,90.49,0,0,1-33.22-33.39q-12.26-21.15-12.25-47.66T1858.29,198a87.44,87.44,0,0,1,31.21-33.22q19.8-12.25,45-12.25a83.42,83.42,0,0,1,66.79,32.22v-94q0-7.05,4.36-11.25a15.36,15.36,0,0,1,11.08-4.19q7,0,11.41,4.19t4.36,11.25V246.16q-.35,26.19-12.58,47.33a89.4,89.4,0,0,1-33.23,33.22Q1965.68,338.8,1939.51,338.79Zm0-27.52q18.12,0,32.22-8.56A61.72,61.72,0,0,0,1994,279.22q8.22-14.93,8.23-33.73T1994,211.93a62.11,62.11,0,0,0-22.31-23.32q-14.1-8.56-32.22-8.56A61.67,61.67,0,0,0,1885,211.93q-8.22,14.77-8.22,33.56t8.22,33.73a61.38,61.38,0,0,0,54.54,32Z" transform="translate(-22.19 -75.34)"/><path class="cls-2" d="M2158.65,338.79a126.84,126.84,0,0,1-42-6.88q-19.8-6.87-31.21-19a14,14,0,0,1-3.69-11.07,15.36,15.36,0,0,1,6-10.41c3.8-2.9,7.72-4.14,11.75-3.69a15.08,15.08,0,0,1,10.07,5.37q6.71,7.38,19.63,12.75a73.14,73.14,0,0,0,28.36,5.37q21.81,0,32.38-7.21t10.91-18q0-11.07-10.4-18.62T2154,255.56q-33.9-6.37-49.34-19.8t-15.44-32.55q0-17.11,9.57-28.36t25.17-16.78a98.14,98.14,0,0,1,33.06-5.54q22.14,0,38.93,7.22t26.85,20q4.35,5,3.86,10.41t-5.54,9.06a16.89,16.89,0,0,1-11.58,2,18.24,18.24,0,0,1-10.91-5.7A47,47,0,0,0,2180,183.24a72.66,72.66,0,0,0-23.66-3.53q-16.11,0-26.69,6t-10.57,16.45a20,20,0,0,0,3.53,11.75q3.52,5,13.25,9.23t27.86,7.55q25.17,4.7,39.77,12.41t21,18.13a44,44,0,0,1,6.38,23.49,47.18,47.18,0,0,1-8.56,27.69q-8.55,12.26-24.66,19.29T2158.65,338.79Z" transform="translate(-22.19 -75.34)"/></svg>