<svg width="360" height="623" viewBox="0 0 360 623" fill="none" xmlns="http://www.w3.org/2000/svg">
<path d="M331.444 85.536C132.465 -49.2213 -57.4415 5.35293 -127.522 49.4847C-150.625 80.0174 -170.133 151.88 -63.3416 195.07C70.147 249.057 580.169 253.983 331.444 85.536Z" fill="white"/>
<path d="M396.577 665.971L399.4 487.552C362.766 392.332 257.042 432.815 215.806 468.761C196.727 484.786 185.639 528.38 38.6774 550.12C-108.284 571.861 -23.7184 632.619 36.9345 660.281L396.577 665.971Z" fill="#D57FFF"/>
<path d="M5.10267 440.234C-116.953 295.86 17.0052 172.482 99.241 128.839C164.164 83.5412 264.795 89.9147 332.964 96.9919C401.133 104.069 401.133 273.921 378.41 348.231C355.687 422.542 157.672 620.702 5.10267 440.234Z" fill="white"/>
</svg>
