<svg width="136" height="125" viewBox="0 0 136 125" fill="none" xmlns="http://www.w3.org/2000/svg">
<path fill-rule="evenodd" clip-rule="evenodd" d="M122.085 4.54093C114.269 10.0422 110.397 13.2827 100.755 22.4011C92.5012 30.1632 92.6475 30.0878 90.3102 27.6009C85.4894 22.2505 67.812 17.4274 62.7719 20.2157C60.3612 21.4968 60.6539 24.059 63.2104 24.059C70.1493 24.1344 76.5775 27.4502 82.056 32.1978C86.9498 36.4934 86.9498 36.2672 80.0109 43.3508C72.56 50.8867 61.9686 63.321 56.0516 71.3844L51.5228 77.5639L47.7245 71.7615C38.74 57.8951 29.0251 51.0377 23.0354 54.2778C20.844 55.4838 21.2093 56.2374 27.7833 63.3968C33.5539 69.6516 39.5436 78.5438 43.7802 87.2098C47.2132 94.2189 55.6867 94.2189 61.4573 84.1207C65.6211 76.8103 76.3583 62.8693 85.1967 53.3738L93.0859 44.8581L94.9848 49.229C111.932 88.3406 70.5877 133.631 35.8183 114.038C0.318373 93.9927 8.35331 29.711 47.0675 23.9837C54.6641 22.8533 54.8098 20.2156 47.2861 19.236C27.8562 16.5231 3.02108 40.261 0.391427 63.9243C-4.57567 109.065 38.5941 138.454 80.8142 118.786C106.453 106.879 118.432 64.0746 102.581 41.467C101.413 39.8093 100.463 38.2268 100.463 37.8497C100.463 36.2673 113.538 24.2097 127.417 13.2072C143.048 0.772984 134.941 -4.50221 122.085 4.54093Z" fill="black" fill-opacity="0.79"/>
</svg>
