<svg width="25" height="22" viewBox="0 0 25 22" fill="none" xmlns="http://www.w3.org/2000/svg">
<path d="M3.79088 22C3.10659 22 2.5208 21.7606 2.0335 21.2819C1.54621 20.8032 1.30256 20.2278 1.30256 19.5556V9.83889C0.825631 9.41111 0.457567 8.86111 0.198367 8.18889C-0.0608326 7.51667 -0.0660167 6.78333 0.182815 5.98889L1.48918 1.83333C1.65507 1.3037 1.95056 0.865741 2.37565 0.519444C2.80074 0.173148 3.29322 0 3.85309 0H21.1469C21.7068 0 22.1941 0.168056 22.6088 0.504167C23.0235 0.840278 23.3242 1.28333 23.5108 1.83333L24.8172 5.98889C25.066 6.78333 25.0608 7.50648 24.8016 8.15833C24.5424 8.81019 24.1744 9.37037 23.6974 9.83889V19.5556C23.6974 20.2278 23.4538 20.8032 22.9665 21.2819C22.4792 21.7606 21.8934 22 21.2091 22H3.79088ZM15.2372 8.55556C15.797 8.55556 16.2221 8.36713 16.5124 7.99028C16.8027 7.61343 16.9168 7.19074 16.8546 6.72222L16.1703 2.44444H13.7442V6.96667C13.7442 7.39444 13.8893 7.7662 14.1796 8.08194C14.4699 8.39769 14.8224 8.55556 15.2372 8.55556ZM9.63843 8.55556C10.1154 8.55556 10.5042 8.39769 10.8048 8.08194C11.1055 7.7662 11.2558 7.39444 11.2558 6.96667V2.44444H8.82973L8.14544 6.72222C8.0625 7.21111 8.17136 7.63889 8.47203 8.00556C8.7727 8.37222 9.1615 8.55556 9.63843 8.55556ZM4.10192 8.55556C4.47517 8.55556 4.80176 8.42315 5.0817 8.15833C5.36163 7.89352 5.5327 7.55741 5.59491 7.15L6.2792 2.44444H3.85309L2.60893 6.53889C2.48451 6.9463 2.5519 7.38426 2.8111 7.85278C3.0703 8.3213 3.50058 8.55556 4.10192 8.55556ZM20.8981 8.55556C21.4994 8.55556 21.9349 8.3213 22.2044 7.85278C22.474 7.38426 22.5362 6.9463 22.3911 6.53889L21.0847 2.44444H18.7208L19.4051 7.15C19.4673 7.55741 19.6384 7.89352 19.9183 8.15833C20.1982 8.42315 20.5248 8.55556 20.8981 8.55556Z" fill="#D57FFF"/>
</svg>
