<svg width="21" height="16" viewBox="0 0 21 16" fill="none" xmlns="http://www.w3.org/2000/svg">
<path d="M16.3577 9.42073L14.9676 5.0679C15.6312 4.91476 15.8471 4.51121 15.7693 3.59716C15.7082 2.8728 15.3036 2.72801 14.6752 2.77202C14.2948 2.79886 13.9039 2.75441 13.5235 2.75925L12.3964 1.97547C12.2648 1.88398 12.1022 1.84854 11.9445 1.87693C11.7868 1.90531 11.6467 1.99521 11.5552 2.12687C11.4639 2.25862 11.4287 2.42123 11.4571 2.57899C11.4856 2.73675 11.5754 2.87676 11.7069 2.96829L11.7724 3.0123H11.1502C10.99 3.0123 10.8364 3.07594 10.7231 3.18924C10.6098 3.30255 10.5461 3.45623 10.546 3.61653C10.5456 3.69619 10.5609 3.77515 10.5911 3.84887C10.6213 3.92258 10.6657 3.98961 10.7218 4.04609C10.778 4.10256 10.8447 4.14738 10.9182 4.17796C10.9917 4.20854 11.0706 4.22428 11.1502 4.22428H12.3942C12.4822 4.33298 12.5758 4.43991 12.6515 4.53937C12.797 4.73036 13.1444 4.84742 13.1748 5.03446C13.4386 6.63898 13.5477 8.24968 12.8546 9.78731C12.235 11.163 10.8081 11.9402 9.40701 11.644L9.9246 9.28077C7.34195 9.28077 4.92553 9.23677 2.51263 9.31378C1.95855 9.33138 1.30025 9.64121 0.894798 10.0302C0.0799438 10.8114 -0.0941977 11.8693 0.0416847 13.0624H1.54826C2.15732 15.0427 2.98448 15.8115 4.45061 15.8177C5.90178 15.8243 6.75973 15.0344 7.35295 13.094C9.21748 12.8678 11.1726 13.4835 12.8498 12.1831C12.867 12.4854 13.0464 12.8775 13.1229 12.841C13.3269 13.1491 13.6123 13.4329 13.7209 13.7727C14.1677 15.1664 15.3555 15.9885 16.8049 15.7865C18.3308 15.5743 19.038 14.552 19.2754 13.102L20.0472 12.9884C20.0898 10.9223 18.9623 9.86961 16.3577 9.42073Z" fill="#322F37"/>
<path d="M2.97233 8.86093C4.87791 8.89966 6.78466 8.90053 8.69258 8.86356C9.7515 8.84376 10.3109 8.22853 10.3197 7.14286C10.337 5.32387 10.3356 3.50488 10.3157 1.68589C10.3025 0.597134 9.73479 0.0351511 8.6574 0.0109468C7.73393 -0.00973689 6.81046 0.00654129 5.88699 0.00610121C4.93361 0.00610121 3.9798 -0.00973818 3.02862 0.00962527C1.97982 0.030749 1.40551 0.535077 1.37297 1.5917C1.31433 3.46937 1.30129 5.34704 1.33383 7.22471C1.34966 8.25097 1.94904 8.84024 2.97233 8.86093Z" fill="#322F37"/>
</svg>
