<svg width="18" height="18" viewBox="0 0 18 18" fill="none" xmlns="http://www.w3.org/2000/svg">
<path d="M3.9375 7.875C2.85 7.875 1.92188 7.49062 1.15312 6.72187C0.384375 5.95312 0 5.025 0 3.9375C0 2.85 0.384375 1.92188 1.15312 1.15312C1.92188 0.384375 2.85 0 3.9375 0C5.025 0 5.95312 0.384375 6.72187 1.15312C7.49062 1.92188 7.875 2.85 7.875 3.9375C7.875 5.025 7.49062 5.95312 6.72187 6.72187C5.95312 7.49062 5.025 7.875 3.9375 7.875ZM3.9375 5.625C4.40625 5.625 4.80469 5.46094 5.13281 5.13281C5.46094 4.80469 5.625 4.40625 5.625 3.9375C5.625 3.46875 5.46094 3.07031 5.13281 2.74219C4.80469 2.41406 4.40625 2.25 3.9375 2.25C3.46875 2.25 3.07031 2.41406 2.74219 2.74219C2.41406 3.07031 2.25 3.46875 2.25 3.9375C2.25 4.40625 2.41406 4.80469 2.74219 5.13281C3.07031 5.46094 3.46875 5.625 3.9375 5.625ZM14.0625 18C12.975 18 12.0469 17.6156 11.2781 16.8469C10.5094 16.0781 10.125 15.15 10.125 14.0625C10.125 12.975 10.5094 12.0469 11.2781 11.2781C12.0469 10.5094 12.975 10.125 14.0625 10.125C15.15 10.125 16.0781 10.5094 16.8469 11.2781C17.6156 12.0469 18 12.975 18 14.0625C18 15.15 17.6156 16.0781 16.8469 16.8469C16.0781 17.6156 15.15 18 14.0625 18ZM14.0625 15.75C14.5312 15.75 14.9297 15.5859 15.2578 15.2578C15.5859 14.9297 15.75 14.5312 15.75 14.0625C15.75 13.5938 15.5859 13.1953 15.2578 12.8672C14.9297 12.5391 14.5312 12.375 14.0625 12.375C13.5938 12.375 13.1953 12.5391 12.8672 12.8672C12.5391 13.1953 12.375 13.5938 12.375 14.0625C12.375 14.5312 12.5391 14.9297 12.8672 15.2578C13.1953 15.5859 13.5938 15.75 14.0625 15.75ZM1.575 18L0 16.425L16.425 0L18 1.575L1.575 18Z" fill="#FCFCFC"/>
</svg>
