<svg width="339" height="77" viewBox="0 0 339 77" fill="none" xmlns="http://www.w3.org/2000/svg">
<g clip-path="url(#clip0_547_703)">
<path d="M88.3847 49.0281C88.1498 49.0306 87.9168 48.9855 87.6993 48.8955C87.4819 48.8055 87.2844 48.6723 87.1185 48.5039C86.9436 48.3372 86.8053 48.135 86.7127 47.9106C86.6201 47.6861 86.5752 47.4444 86.581 47.2012V20.5133C86.5713 20.2686 86.6123 20.0246 86.7015 19.797C86.7906 19.5694 86.9259 19.3633 87.0985 19.1919C87.2691 19.0254 87.4706 18.895 87.6914 18.8082C87.9122 18.7214 88.1479 18.68 88.3847 18.6864H105.99C106.226 18.6749 106.461 18.7122 106.682 18.7958C106.903 18.8795 107.104 19.0079 107.275 19.1732C107.435 19.3397 107.56 19.5374 107.642 19.7544C107.724 19.9713 107.762 20.203 107.754 20.4352C107.758 20.6553 107.718 20.8739 107.635 21.0775C107.553 21.2812 107.43 21.4656 107.275 21.6193C107.104 21.7846 106.903 21.913 106.682 21.9967C106.461 22.0803 106.226 22.1176 105.99 22.1061H90.1868V32.0515H101.585C101.823 32.0413 102.061 32.0789 102.285 32.1622C102.509 32.2454 102.714 32.3727 102.89 32.5366C103.208 32.8621 103.387 33.3021 103.387 33.7605C103.387 34.219 103.208 34.6589 102.89 34.9844C102.715 35.1487 102.509 35.2762 102.285 35.3595C102.061 35.4428 101.823 35.4802 101.585 35.4696H90.1868V47.2012C90.1916 47.4423 90.1483 47.682 90.0594 47.9057C89.9706 48.1294 89.8381 48.3327 89.6698 48.5033C89.5015 48.6739 89.3009 48.8083 89.0801 48.8985C88.8593 48.9887 88.6227 49.0327 88.3847 49.0281Z" fill="#3F9BFF"/>
<path d="M122.099 49.1825C120.053 49.1825 118.231 48.7228 116.634 47.8034C115.059 46.9086 113.758 45.5916 112.874 43.9969C111.967 42.3786 111.513 40.5205 111.512 38.4228C111.512 36.299 111.966 34.4269 112.874 32.8066C113.758 31.2122 115.059 29.8953 116.634 29C118.23 28.0816 120.052 27.622 122.099 27.6209C124.145 27.6199 125.967 28.0796 127.565 29C129.139 29.8953 130.439 31.2123 131.323 32.8066C132.231 34.4259 132.698 36.298 132.723 38.4228C132.723 40.5195 132.261 42.3775 131.337 43.9969C130.446 45.5861 129.147 46.9015 127.577 47.8034C125.997 48.7239 124.171 49.1836 122.099 49.1825ZM122.099 45.9969C123.403 46.0241 124.69 45.6885 125.82 45.0265C126.889 44.3838 127.764 43.4569 128.351 42.3463C128.982 41.139 129.3 39.7889 129.275 38.4228C129.299 37.0504 128.981 35.694 128.351 34.4789C127.769 33.3598 126.893 32.4253 125.82 31.7785C124.684 31.142 123.407 30.8081 122.109 30.8081C120.81 30.8081 119.533 31.142 118.397 31.7785C117.316 32.4216 116.433 33.3566 115.847 34.4789C115.217 35.6942 114.899 37.0505 114.922 38.4228C114.898 39.7888 115.216 41.1388 115.847 42.3463C116.437 43.4603 117.32 44.3878 118.397 45.0265C119.522 45.6835 120.801 46.0189 122.099 45.9969Z" fill="#3F9BFF"/>
<path d="M148.028 49.1825C145.982 49.1825 144.16 48.7228 142.561 47.8034C140.987 46.9085 139.686 45.5914 138.803 43.9969C137.895 42.3786 137.441 40.5205 137.441 38.4228C137.441 36.299 137.895 34.4269 138.803 32.8066C139.687 31.2123 140.987 29.8953 142.561 29C144.16 28.0816 145.982 27.622 148.028 27.6209C150.073 27.6199 151.895 28.0796 153.494 29C155.068 29.8958 156.368 31.2126 157.252 32.8066C158.159 34.4259 158.626 36.298 158.652 38.4228C158.652 40.5195 158.19 42.3775 157.266 43.9969C156.376 45.5861 155.077 46.9015 153.508 47.8034C151.928 48.7239 150.101 49.1836 148.028 49.1825ZM148.028 45.9969C149.334 46.0248 150.623 45.6891 151.754 45.0265C152.823 44.3838 153.698 43.4569 154.284 42.3463C154.915 41.1388 155.233 39.7888 155.208 38.4228C155.232 37.0505 154.914 35.6942 154.284 34.4789C153.702 33.3598 152.827 32.4253 151.754 31.7785C150.617 31.142 149.34 30.8081 148.042 30.8081C146.744 30.8081 145.467 31.142 144.331 31.7785C143.249 32.4207 142.366 33.3559 141.78 34.4789C141.15 35.6942 140.833 37.0505 140.856 38.4228C140.831 39.7888 141.149 41.1388 141.78 42.3463C142.37 43.461 143.253 44.3887 144.331 45.0265C145.454 45.6829 146.731 46.0183 148.028 45.9969Z" fill="#3F9BFF"/>
<path d="M173.957 49.1825C172.066 49.2113 170.204 48.7213 168.566 47.7644C166.985 46.8392 165.675 45.5058 164.769 43.9002C163.835 42.2683 163.368 40.4296 163.369 38.3838C163.37 36.338 163.804 34.5055 164.672 32.8861C165.505 31.3076 166.736 29.9807 168.239 29.0406C169.749 28.0952 171.462 27.6225 173.379 27.6225C174.849 27.6055 176.303 27.9333 177.628 28.5801C178.952 29.227 180.111 30.1753 181.013 31.351V20.4743C181.001 20.2342 181.039 19.9943 181.125 19.7702C181.211 19.5461 181.342 19.3427 181.51 19.1732C181.679 19.011 181.878 18.8844 182.095 18.8008C182.312 18.7173 182.544 18.6784 182.777 18.6864C183.015 18.6759 183.253 18.7136 183.477 18.7971C183.701 18.8807 183.906 19.0085 184.081 19.1732C184.249 19.3427 184.381 19.5461 184.466 19.7702C184.552 19.9943 184.59 20.2342 184.579 20.4743V38.4602C184.579 40.3822 184.084 42.2709 183.142 43.9392C182.237 45.541 180.925 46.8687 179.343 47.7847C177.703 48.7284 175.843 49.211 173.957 49.1825ZM173.957 45.9969C175.251 46.0208 176.526 45.6776 177.638 45.0062C178.712 44.3459 179.593 43.4072 180.189 42.2871C180.826 41.0899 181.15 39.747 181.128 38.3869C181.152 37.0311 180.828 35.6922 180.189 34.5008C179.588 33.3893 178.708 32.4583 177.638 31.8019C176.816 31.3057 175.903 30.9817 174.955 30.849C174.007 30.7163 173.042 30.7776 172.118 31.0292C171.193 31.2809 170.328 31.7178 169.573 32.3141C168.818 32.9104 168.189 33.6539 167.723 34.5008C167.084 35.6922 166.76 37.0311 166.784 38.3869C166.762 39.747 167.086 41.0899 167.723 42.2871C168.332 43.4203 169.234 44.3643 170.332 45.0178C171.43 45.6714 172.683 46.0099 173.957 45.9969Z" fill="#3F9BFF"/>
<path d="M196.279 49.0281C195.251 49.0427 194.245 48.73 193.403 48.1342C192.535 47.5094 191.852 46.6566 191.427 45.6677C190.934 44.5226 190.692 43.2831 190.717 42.0343V20.4352C190.705 20.2026 190.742 19.9701 190.825 19.7528C190.908 19.5354 191.035 19.3381 191.197 19.1733C191.36 19.0086 191.555 18.8802 191.769 18.7963C191.984 18.7125 192.214 18.675 192.443 18.6864C192.679 18.6748 192.914 18.712 193.135 18.7957C193.356 18.8794 193.558 19.0078 193.728 19.1732C193.889 19.3392 194.014 19.5368 194.097 19.7538C194.18 19.9709 194.218 20.2028 194.208 20.4352V42.0343C194.208 43.0452 194.406 43.8741 194.801 44.5211C195.197 45.168 195.689 45.4919 196.279 45.493H197.238C197.453 45.4827 197.668 45.5209 197.867 45.6048C198.066 45.6887 198.244 45.8162 198.389 45.9781C198.684 46.3439 198.834 46.8076 198.811 47.2792C198.815 47.5262 198.76 47.7705 198.649 47.9908C198.539 48.211 198.377 48.4006 198.178 48.5429C197.702 48.8827 197.129 49.0533 196.548 49.0281H196.279Z" fill="#3F9BFF"/>
<path d="M210.854 48.2512C210.66 48.3518 210.447 48.4106 210.229 48.4241C210.012 48.4375 209.793 48.4052 209.588 48.3292C209.183 48.1552 208.854 47.8373 208.664 47.4353L199.965 30.1092C199.852 29.9173 199.785 29.7018 199.769 29.4793C199.752 29.2569 199.786 29.0336 199.869 28.8268C199.954 28.6187 200.082 28.4313 200.244 28.2771C200.406 28.123 200.598 28.0056 200.809 27.9329C200.999 27.8323 201.208 27.7718 201.422 27.7552C201.636 27.7386 201.851 27.7661 202.055 27.8362C202.26 27.9155 202.446 28.0378 202.601 28.1951C202.757 28.3524 202.877 28.5411 202.956 28.7488L211.357 46.0359C211.596 46.4239 211.691 46.8858 211.625 47.3385C211.545 47.74 211.289 48.0442 210.854 48.2512ZM206.405 58.312C206.126 58.3008 205.853 58.2352 205.599 58.1186C204.572 57.6516 204.291 56.9132 204.756 55.9033L216.723 28.7878C217.183 27.8029 217.911 27.518 218.909 27.9329C219.957 28.3739 220.251 29.1118 219.791 30.1467L207.786 57.2246C207.48 57.9506 207.02 58.3131 206.405 58.312Z" fill="#3F9BFF"/>
<path d="M234.519 49.0281C234.284 49.0303 234.052 48.9851 233.834 48.8951C233.617 48.8051 233.419 48.6721 233.253 48.5039C233.079 48.3369 232.941 48.1346 232.849 47.9102C232.756 47.6858 232.712 47.4443 232.717 47.2012V20.5133C232.708 20.2686 232.749 20.0246 232.838 19.797C232.927 19.5694 233.062 19.3633 233.235 19.1919C233.405 19.0256 233.606 18.8953 233.827 18.8085C234.047 18.7218 234.283 18.6803 234.519 18.6864H252.125C252.36 18.6747 252.596 18.7118 252.817 18.7955C253.038 18.8792 253.239 19.0077 253.409 19.1732C253.57 19.3392 253.696 19.5368 253.779 19.7538C253.861 19.9709 253.899 20.2028 253.89 20.4352C253.896 20.6563 253.856 20.876 253.774 21.0809C253.692 21.2857 253.569 21.4711 253.412 21.6256C253.242 21.7911 253.041 21.9196 252.82 22.0033C252.599 22.087 252.363 22.1241 252.128 22.1123H236.323V32.0577H247.721C247.959 32.0475 248.197 32.0851 248.421 32.1684C248.644 32.2516 248.849 32.3789 249.024 32.5429C249.344 32.868 249.523 33.308 249.523 33.7668C249.523 34.2255 249.344 34.6655 249.024 34.9906C248.85 35.1549 248.644 35.2824 248.421 35.3657C248.197 35.449 247.959 35.4864 247.721 35.4758H236.323V47.2075C236.327 47.4486 236.284 47.6882 236.195 47.9118C236.106 48.1355 235.973 48.3386 235.805 48.5092C235.636 48.6797 235.436 48.8141 235.215 48.9043C234.994 48.9945 234.757 49.0388 234.519 49.0343V49.0281Z" fill="#D57FFF"/>
<path d="M260.947 24.0874C260.64 24.0909 260.335 24.0306 260.051 23.9105C259.768 23.7903 259.511 23.6126 259.298 23.3885C259.073 23.1656 258.895 22.8983 258.777 22.6031C258.658 22.3079 258.6 21.9911 258.608 21.6724C258.601 21.3559 258.66 21.0416 258.782 20.7503C258.904 20.4589 259.087 20.1973 259.316 19.9828C259.537 19.7637 259.798 19.5908 260.084 19.4741C260.371 19.3574 260.677 19.2991 260.986 19.3026C261.288 19.302 261.588 19.3617 261.868 19.4785C262.147 19.5952 262.401 19.7665 262.616 19.9828C262.846 20.1972 263.028 20.4588 263.15 20.7501C263.273 21.0414 263.333 21.3558 263.326 21.6724C263.328 21.9895 263.269 22.3039 263.15 22.5974C263.032 22.8908 262.856 23.1574 262.635 23.3816C262.414 23.6058 262.15 23.7832 261.861 23.9033C261.571 24.0234 261.261 24.0838 260.947 24.0811V24.0874ZM260.986 49.0281C260.746 49.0384 260.506 48.9989 260.282 48.912C260.058 48.8251 259.853 48.6926 259.681 48.5226C259.516 48.3548 259.386 48.1544 259.301 47.9338C259.215 47.7133 259.174 47.4772 259.182 47.2402V29.5647C259.171 29.3246 259.209 29.0846 259.295 28.8605C259.381 28.6363 259.513 28.433 259.681 28.2636C259.856 28.0989 260.061 27.971 260.285 27.8875C260.509 27.8039 260.748 27.7663 260.986 27.7769C261.218 27.769 261.449 27.8079 261.667 27.8915C261.884 27.975 262.082 28.1016 262.251 28.2636C262.419 28.433 262.551 28.6363 262.637 28.8605C262.723 29.0846 262.761 29.3246 262.75 29.5647V47.2402C262.758 47.4771 262.718 47.7132 262.632 47.9337C262.546 48.1543 262.417 48.3546 262.251 48.5223C262.086 48.6899 261.888 48.8214 261.671 48.9084C261.453 48.9954 261.22 49.0361 260.986 49.0281Z" fill="#D57FFF"/>
<path d="M271.879 49.0671C271.645 49.0754 271.412 49.0348 271.194 48.9479C270.976 48.8609 270.778 48.7296 270.613 48.5619C270.447 48.3942 270.317 48.1938 270.231 47.9731C270.146 47.7525 270.106 47.5163 270.114 47.2793V29.5648C270.102 29.3246 270.141 29.0846 270.227 28.8605C270.313 28.6364 270.444 28.433 270.613 28.2637C270.859 28.0002 271.179 27.8192 271.529 27.745C271.88 27.6709 272.244 27.707 272.574 27.8485C272.904 27.9901 273.183 28.2304 273.374 28.5371C273.565 28.8439 273.658 29.2024 273.643 29.5648V47.2793C273.651 47.5145 273.612 47.749 273.53 47.9691C273.448 48.1893 273.323 48.3907 273.164 48.5616C272.996 48.7323 272.796 48.8655 272.574 48.9526C272.353 49.0397 272.116 49.0787 271.879 49.0671ZM287.95 49.0671C287.712 49.0733 287.475 49.0301 287.254 48.9399C287.032 48.8497 286.832 48.7146 286.664 48.5429C286.497 48.3791 286.365 48.1826 286.276 47.9653C286.187 47.748 286.143 47.5145 286.147 47.2793V37.4899C286.147 35.9631 285.865 34.715 285.303 33.7457C284.778 32.8073 283.991 32.0474 283.04 31.5616C282.023 31.067 280.907 30.8212 279.779 30.844C278.704 30.8266 277.639 31.0661 276.672 31.5429C275.796 31.973 275.039 32.6162 274.468 33.415C273.916 34.1955 273.627 35.1352 273.643 36.0952H271.341C271.343 34.5514 271.77 33.0388 272.574 31.727C273.364 30.4463 274.476 29.4009 275.796 28.6973C277.201 27.9457 278.771 27.5648 280.36 27.5897C282.15 27.5897 283.748 27.9719 285.155 28.7364C286.566 29.504 287.725 30.6718 288.491 32.0967C289.312 33.5726 289.723 35.3723 289.723 37.4961V47.2855C289.723 47.7593 289.537 48.2135 289.206 48.5487C288.876 48.8838 288.427 49.0725 287.96 49.0733L287.95 49.0671Z" fill="#D57FFF"/>
<path d="M305.708 49.1825C303.818 49.2113 301.955 48.7213 300.317 47.7644C298.737 46.8382 297.427 45.505 296.52 43.9002C295.587 42.2683 295.12 40.4296 295.12 38.3838C295.12 36.338 295.555 34.5055 296.425 32.8861C297.257 31.3073 298.488 29.9803 299.992 29.0406C301.5 28.0952 303.213 27.6225 305.131 27.6225C306.601 27.6051 308.055 27.9326 309.379 28.5795C310.704 29.2264 311.862 30.175 312.764 31.351V20.4743C312.753 20.2341 312.791 19.9942 312.877 19.77C312.963 19.5459 313.095 19.3425 313.263 19.1732C313.432 19.0109 313.63 18.8842 313.847 18.8006C314.064 18.7171 314.296 18.6782 314.528 18.6864C314.766 18.6759 315.005 18.7136 315.229 18.7971C315.453 18.8807 315.658 19.0085 315.833 19.1732C316.001 19.3425 316.133 19.5459 316.219 19.77C316.305 19.9942 316.343 20.2341 316.332 20.4743V38.4602C316.332 40.3823 315.836 42.271 314.893 43.9392C313.988 45.5409 312.678 46.8686 311.096 47.7847C309.455 48.7282 307.595 49.2108 305.708 49.1825ZM305.708 45.9969C307.003 46.0206 308.279 45.6775 309.391 45.0062C310.465 44.3459 311.346 43.4072 311.942 42.2871C312.579 41.0897 312.903 39.7469 312.881 38.3869C312.904 37.0312 312.58 35.6925 311.942 34.5008C311.341 33.3893 310.461 32.4583 309.391 31.8019C308.569 31.3057 307.656 30.9817 306.708 30.8489C305.759 30.7162 304.794 30.7775 303.87 31.0291C302.945 31.2808 302.08 31.7177 301.325 32.314C300.57 32.9103 299.941 33.6539 299.475 34.5008C298.835 35.6922 298.512 37.0311 298.535 38.3869C298.514 39.747 298.837 41.0899 299.475 42.2871C300.083 43.4203 300.985 44.3643 302.083 45.0178C303.182 45.6714 304.435 46.0099 305.708 45.9969Z" fill="#D57FFF"/>
<path d="M330.755 49.1825C329.124 49.1921 327.503 48.9231 325.96 48.3869C324.451 47.8565 323.262 47.1248 322.393 46.1919C322.236 46.0214 322.116 45.8186 322.044 45.5973C321.971 45.376 321.946 45.1414 321.971 44.9095C322 44.6721 322.076 44.443 322.195 44.2361C322.313 44.0292 322.472 43.8486 322.661 43.7052C323.035 43.3888 323.518 43.2351 324.004 43.2777C324.454 43.3244 324.867 43.5486 325.155 43.9017C325.668 44.4717 326.416 44.9636 327.399 45.3775C328.425 45.801 329.525 46.0131 330.633 46.0016C332.295 46.0016 333.527 45.7234 334.33 45.1669C335.133 44.6105 335.548 43.9178 335.576 43.0889C335.576 42.234 335.18 41.5153 334.387 40.9329C333.594 40.3505 332.201 39.8908 330.207 39.5538C327.623 39.0619 325.743 38.298 324.568 37.2621C323.392 36.2262 322.808 34.9662 322.815 33.4821C322.815 32.1612 323.179 31.0692 323.908 30.2059C324.678 29.31 325.671 28.6393 326.784 28.2637C327.998 27.832 329.276 27.6151 330.562 27.6225C332.251 27.6225 333.734 27.9007 335.012 28.4571C336.211 28.9536 337.267 29.7489 338.081 30.7691C338.233 30.9275 338.351 31.1165 338.427 31.324C338.503 31.5314 338.535 31.7527 338.521 31.9735C338.498 32.1847 338.43 32.3883 338.321 32.5695C338.211 32.7508 338.063 32.9052 337.888 33.0219C337.489 33.2581 337.019 33.3411 336.565 33.2559C336.086 33.1883 335.646 32.9545 335.319 32.5944C334.731 31.9562 334.001 31.4699 333.19 31.1763C332.317 30.8904 331.403 30.7528 330.485 30.7691C329.253 30.7691 328.237 31.0021 327.437 31.468C326.637 31.934 326.234 32.5684 326.228 33.3713C326.218 33.8565 326.359 34.3326 326.632 34.7317C326.9 35.1196 327.404 35.4758 328.146 35.8003C328.887 36.1248 329.948 36.416 331.33 36.6739C333.247 37.0369 334.762 37.5159 335.875 38.1108C336.988 38.7057 337.787 39.4051 338.272 40.2091C338.763 41.0279 339.016 41.9704 339.002 42.9283C339.015 44.0743 338.673 45.1958 338.024 46.1342C337.371 47.0796 336.43 47.8237 335.203 48.3666C333.976 48.9095 332.493 49.1815 330.755 49.1825Z" fill="#D57FFF"/>
<path d="M46.552 9.71608C42.0863 9.70396 37.7491 11.2288 34.2513 14.0406C34.5395 13.9358 34.8379 13.8625 35.1415 13.8222C37.2841 13.5382 38.7951 15.0702 38.5148 17.2387C38.2344 19.4072 36.2721 21.3994 34.1296 21.6817C31.987 21.9641 30.476 20.4337 30.7548 18.2652C30.7962 17.958 30.8684 17.6558 30.9705 17.3635C28.1607 20.9775 26.6589 25.4577 26.7154 30.0573C26.7719 34.6569 28.3833 39.098 31.2809 42.6401C34.1785 46.1821 38.1873 48.6113 42.639 49.5225C47.0906 50.4337 51.7161 49.7719 55.7444 47.6474C55.5904 47.6474 55.424 47.6661 55.2608 47.6817C51.7612 48.014 48.7638 46.8924 46.5042 44.1482C43.0663 39.9766 39.7177 35.7239 36.3383 31.5117C35.7007 30.7145 35.6791 29.858 36.4415 29.1576C37.204 28.4571 38.0481 28.5725 38.7658 29.2886C40.5372 31.0562 42.2869 32.8471 44.0459 34.6271C45.6925 36.2948 47.3329 37.9704 48.9887 39.6193C49.9468 40.5788 50.9341 40.6677 51.6904 39.9048C52.422 39.1685 52.3188 38.1123 51.3823 37.1638C48.0666 33.7961 44.7457 30.4316 41.4197 27.0702C40.3107 25.9438 40.4016 24.5928 41.6123 24.0031C42.5272 23.5569 43.1972 24.0031 43.818 24.6396C45.8809 26.7353 47.9454 28.8284 50.0115 30.9189C51.2437 32.1669 52.4605 33.415 53.6974 34.649C54.7309 35.6849 55.7121 35.8159 56.4899 35.0484C57.2678 34.2808 57.1384 33.2356 56.1387 32.22C52.9349 28.9636 49.726 25.7119 46.5119 22.4649C46.3089 22.2754 46.1156 22.0754 45.9328 21.8658C45.3398 21.1264 45.2104 20.3401 45.8835 19.5975C46.5936 18.8175 47.4161 18.844 48.2032 19.4836C50.5398 21.3853 52.8641 23.3058 55.193 25.2184C56.8164 26.5507 58.4276 27.8955 60.0695 29.2137C63.0346 31.6022 64.5163 34.6739 64.1698 38.5289C64.1498 38.7395 64.139 38.9485 64.1313 39.1529C65.7143 36.0886 66.4905 32.6627 66.3848 29.206C66.2792 25.7492 65.2952 22.3785 63.528 19.4193C61.7608 16.4601 59.2701 14.0125 56.2964 12.3128C53.3227 10.613 49.9665 9.71869 46.552 9.71608Z" fill="#D57FFF"/>
<path d="M29.569 5.52244C15.3983 15.8189 13.3482 35.2713 23.3971 48.2291C20.3904 50.9863 17.3869 53.7471 14.3864 56.5115C10.2014 60.3446 5.99798 64.1558 1.81611 67.9951C-0.457355 70.0825 -0.608304 73.3368 1.43412 75.4616C1.91018 75.9583 2.48204 76.3505 3.11413 76.6138C3.74622 76.877 4.42503 77.0058 5.10836 76.9921C5.79169 76.9783 6.46492 76.8223 7.08618 76.5338C7.70745 76.2453 8.26347 75.8304 8.71967 75.3149C15.2916 67.9837 21.847 60.6405 28.386 53.2853C33.28 57.1742 39.265 59.3918 45.4813 59.6197C51.6976 59.8476 57.8252 58.074 62.9839 54.5536C63.2012 54.4042 63.3842 54.2093 63.5208 53.9821C63.6573 53.7549 63.7441 53.5006 63.7754 53.2365C63.8066 52.9725 63.7815 52.7047 63.7019 52.4512C63.6222 52.1978 63.4898 51.9646 63.3136 51.7674L62.1275 50.4335C61.7171 49.9666 61.2603 49.5436 60.7644 49.1714C60.4639 48.95 60.1042 48.826 59.7328 48.8157C59.3613 48.8054 58.9955 48.9093 58.6835 49.1137C54.5566 51.7804 49.6855 53.0158 44.8049 52.6337C39.9242 52.2515 35.2985 50.2725 31.6253 46.9951C21.5841 38.0123 21.4594 22.1012 31.3573 12.9608C35.4004 9.23704 40.6406 7.12636 46.1044 7.02088C51.5682 6.91539 56.8841 8.82228 61.0644 12.3873C65.2447 15.9523 68.0052 20.933 68.833 26.4041C69.6609 31.8752 68.4998 37.4646 65.5655 42.134C65.3674 42.4463 65.2654 42.8112 65.2726 43.1823C65.2797 43.5534 65.3956 43.914 65.6055 44.2182C66.0679 44.8653 66.6 45.4581 67.192 45.9858L68.1716 46.875C68.368 47.0516 68.5992 47.1837 68.8499 47.2627C69.1006 47.3417 69.365 47.3657 69.6256 47.3331C69.8862 47.3004 70.1369 47.212 70.361 47.0735C70.5852 46.9351 70.7777 46.7499 70.9257 46.5302C79.5513 33.6238 77.0868 15.3852 63.5323 5.52712C58.5813 1.93251 52.643 -0.00102187 46.5514 -0.0018613C40.4598 -0.00270073 34.5209 1.92919 29.569 5.52244Z" fill="#3F9BFF"/>
</g>
<defs>
<clipPath id="clip0_547_703">
<rect width="339" height="77" fill="white"/>
</clipPath>
</defs>
</svg>
