<svg width="17" height="18" viewBox="0 0 17 18" fill="none" xmlns="http://www.w3.org/2000/svg">
<path d="M7.15945 18V9.65019L0.0483398 5.42966V12.7529C0.0483398 13.0875 0.126118 13.3916 0.281673 13.6654C0.437229 13.9392 0.655747 14.1597 0.937229 14.327L7.15945 18ZM8.93723 18L15.1595 14.327C15.4409 14.1597 15.6595 13.9392 15.815 13.6654C15.9706 13.3916 16.0483 13.0875 16.0483 12.7529V5.42966L8.93723 9.65019V18ZM12.4706 5.45247L15.0928 3.87833L8.93723 0.250951C8.65575 0.0836502 8.35945 0 8.04834 0C7.73723 0 7.44093 0.0836502 7.15945 0.250951L5.4039 1.27757L12.4706 5.45247ZM8.04834 8.07605L10.6928 6.52471L3.64834 2.327L0.981673 3.90114L8.04834 8.07605Z" fill="#322F37"/>
</svg>
