<svg width="18" height="18" viewBox="0 0 18 18" fill="none" xmlns="http://www.w3.org/2000/svg">
<path d="M5.40499 18C4.90954 18 4.48539 17.8238 4.13257 17.4713C3.77974 17.1188 3.60333 16.695 3.60333 16.2C3.60333 15.705 3.77974 15.2813 4.13257 14.9288C4.48539 14.5763 4.90954 14.4 5.40499 14.4C5.90045 14.4 6.32459 14.5763 6.67742 14.9288C7.03025 15.2813 7.20666 15.705 7.20666 16.2C7.20666 16.695 7.03025 17.1188 6.67742 17.4713C6.32459 17.8238 5.90045 18 5.40499 18ZM14.4133 18C13.9179 18 13.4937 17.8238 13.1409 17.4713C12.7881 17.1188 12.6117 16.695 12.6117 16.2C12.6117 15.705 12.7881 15.2813 13.1409 14.9288C13.4937 14.5763 13.9179 14.4 14.4133 14.4C14.9088 14.4 15.3329 14.5763 15.6857 14.9288C16.0386 15.2813 16.215 15.705 16.215 16.2C16.215 16.695 16.0386 17.1188 15.6857 17.4713C15.3329 17.8238 14.9088 18 14.4133 18ZM4.63929 3.6L6.80128 8.1H13.1071L15.5844 3.6H4.63929ZM3.7835 1.8H17.0708C17.4161 1.8 17.6788 1.95375 17.859 2.26125C18.0392 2.56875 18.0467 2.88 17.8815 3.195L14.6836 8.955C14.5184 9.255 14.297 9.4875 14.0192 9.6525C13.7414 9.8175 13.4374 9.9 13.1071 9.9H6.39591L5.40499 11.7H16.215V13.5H5.40499C4.72937 13.5 4.2189 13.2038 3.87358 12.6113C3.52826 12.0188 3.51325 11.43 3.82854 10.845L5.04466 8.64L1.80166 1.8H0V0H2.9277L3.7835 1.8Z" fill="#FCFCFC"/>
</svg>
