<svg width="25" height="22" viewBox="0 0 25 22" fill="none" xmlns="http://www.w3.org/2000/svg">
<path d="M2.96322 0H22.0368C22.4228 0 22.7464 0.131771 23.0075 0.395313C23.2686 0.658854 23.3992 0.985417 23.3992 1.375C23.3992 1.76458 23.2686 2.09115 23.0075 2.35469C22.7464 2.61823 22.4228 2.75 22.0368 2.75H2.96322C2.5772 2.75 2.25363 2.61823 1.99251 2.35469C1.73138 2.09115 1.60082 1.76458 1.60082 1.375C1.60082 0.985417 1.73138 0.658854 1.99251 0.395313C2.25363 0.131771 2.5772 0 2.96322 0ZM2.96322 22C2.5772 22 2.25363 21.8682 1.99251 21.6047C1.73138 21.3411 1.60082 21.0146 1.60082 20.625V13.75H1.3624C0.930972 13.75 0.579019 13.5839 0.30654 13.2516C0.0340599 12.9193 -0.0567666 12.5354 0.0340599 12.1L1.39646 5.225C1.46458 4.90417 1.62352 4.64062 1.8733 4.43438C2.12307 4.22813 2.4069 4.125 2.7248 4.125H22.2752C22.5931 4.125 22.8769 4.22813 23.1267 4.43438C23.3765 4.64062 23.5354 4.90417 23.6035 5.225L24.9659 12.1C25.0568 12.5354 24.9659 12.9193 24.6935 13.2516C24.421 13.5839 24.069 13.75 23.6376 13.75H23.3992V20.625C23.3992 21.0146 23.2686 21.3411 23.0075 21.6047C22.7464 21.8682 22.4228 22 22.0368 22C21.6508 22 21.3272 21.8682 21.0661 21.6047C20.805 21.3411 20.6744 21.0146 20.6744 20.625V13.75H15.2248V20.625C15.2248 21.0146 15.0942 21.3411 14.8331 21.6047C14.572 21.8682 14.2484 22 13.8624 22H2.96322ZM4.32561 19.25H12.5V13.75H4.32561V19.25Z" fill="#D57FFF"/>
</svg>
